<svg width="1440" height="152" viewBox="0 0 1440 152" fill="none" xmlns="http://www.w3.org/2000/svg">
<rect width="32" height="152" fill="#909090" fill-opacity="0.05"/>
<rect x="256" width="32" height="152" fill="#909090" fill-opacity="0.05"/>
<rect x="608" width="32" height="152" fill="#909090" fill-opacity="0.05"/>
<rect x="958" width="32" height="152" fill="#909090" fill-opacity="0.05"/>
<rect x="32" y="53" width="32" height="99" fill="#909090" fill-opacity="0.05"/>
<rect x="288" y="53" width="32" height="99" fill="#909090" fill-opacity="0.05"/>
<rect x="640" y="53" width="32" height="99" fill="#909090" fill-opacity="0.05"/>
<rect x="990" y="53" width="32" height="99" fill="#909090" fill-opacity="0.05"/>
<rect x="64" y="28" width="32" height="124" fill="#909090" fill-opacity="0.05"/>
<rect x="320" y="28" width="32" height="124" fill="#909090" fill-opacity="0.05"/>
<rect x="672" y="28" width="32" height="124" fill="#909090" fill-opacity="0.05"/>
<rect x="1022" y="28" width="32" height="124" fill="#909090" fill-opacity="0.05"/>
<rect x="96" width="32" height="152" fill="#909090" fill-opacity="0.05"/>
<rect x="352" width="32" height="152" fill="#909090" fill-opacity="0.05"/>
<rect x="704" width="32" height="152" fill="#909090" fill-opacity="0.05"/>
<rect x="1054" width="32" height="152" fill="#909090" fill-opacity="0.05"/>
<rect x="128" y="44" width="32" height="108" fill="#909090" fill-opacity="0.05"/>
<rect x="384" y="44" width="32" height="108" fill="#909090" fill-opacity="0.05"/>
<rect x="736" y="44" width="32" height="108" fill="#909090" fill-opacity="0.05"/>
<rect x="1086" y="44" width="32" height="108" fill="#909090" fill-opacity="0.05"/>
<rect x="160" y="75" width="32" height="77" fill="#909090" fill-opacity="0.05"/>
<rect x="512" y="75" width="32" height="77" fill="#909090" fill-opacity="0.05"/>
<rect x="862" y="75" width="32" height="77" fill="#909090" fill-opacity="0.05"/>
<rect x="416" y="75" width="32" height="77" fill="#909090" fill-opacity="0.05"/>
<rect x="768" y="75" width="32" height="77" fill="#909090" fill-opacity="0.05"/>
<rect x="1118" y="75" width="32" height="77" fill="#909090" fill-opacity="0.05"/>
<rect x="192" y="97" width="32" height="55" fill="#909090" fill-opacity="0.05"/>
<rect x="544" y="97" width="32" height="55" fill="#909090" fill-opacity="0.05"/>
<rect x="894" y="97" width="32" height="55" fill="#909090" fill-opacity="0.05"/>
<rect x="448" y="97" width="32" height="55" fill="#909090" fill-opacity="0.05"/>
<rect x="800" y="97" width="32" height="55" fill="#909090" fill-opacity="0.05"/>
<rect x="1150" y="97" width="32" height="55" fill="#909090" fill-opacity="0.05"/>
<rect x="224" y="53" width="32" height="99" fill="#909090" fill-opacity="0.05"/>
<rect x="576" y="53" width="32" height="99" fill="#909090" fill-opacity="0.05"/>
<rect x="926" y="53" width="32" height="99" fill="#909090" fill-opacity="0.05"/>
<rect x="480" y="53" width="32" height="99" fill="#909090" fill-opacity="0.05"/>
<rect x="832" y="53" width="32" height="99" fill="#909090" fill-opacity="0.05"/>
<rect x="1182" y="53" width="32" height="99" fill="#909090" fill-opacity="0.05"/>
<rect x="1214" y="44" width="32" height="108" fill="#909090" fill-opacity="0.05"/>
<rect x="1340" y="75" width="32" height="77" fill="#909090" fill-opacity="0.05"/>
<rect x="1246" y="75" width="32" height="77" fill="#909090" fill-opacity="0.05"/>
<rect x="1372" y="97" width="32" height="55" fill="#909090" fill-opacity="0.05"/>
<rect x="1278" y="97" width="32" height="55" fill="#909090" fill-opacity="0.05"/>
<rect x="1404" y="53" width="32" height="99" fill="#909090" fill-opacity="0.05"/>
<rect x="1310" y="53" width="32" height="99" fill="#909090" fill-opacity="0.05"/>
<rect x="34" width="32" height="152" fill="#909090" fill-opacity="0.1"/>
<rect x="290" width="32" height="152" fill="#909090" fill-opacity="0.1"/>
<rect x="642" width="32" height="152" fill="#909090" fill-opacity="0.1"/>
<rect x="992" width="32" height="152" fill="#909090" fill-opacity="0.1"/>
<rect x="66" y="53" width="32" height="99" fill="#909090" fill-opacity="0.1"/>
<rect x="322" y="53" width="32" height="99" fill="#909090" fill-opacity="0.1"/>
<rect x="674" y="53" width="32" height="99" fill="#909090" fill-opacity="0.1"/>
<rect x="1024" y="53" width="32" height="99" fill="#909090" fill-opacity="0.1"/>
<rect x="98" y="28" width="32" height="124" fill="#909090" fill-opacity="0.1"/>
<rect x="354" y="28" width="32" height="124" fill="#909090" fill-opacity="0.1"/>
<rect x="706" y="28" width="32" height="124" fill="#909090" fill-opacity="0.1"/>
<rect x="1056" y="28" width="32" height="124" fill="#909090" fill-opacity="0.1"/>
<rect x="130" width="32" height="152" fill="#909090" fill-opacity="0.1"/>
<rect x="386" width="32" height="152" fill="#909090" fill-opacity="0.1"/>
<rect x="738" width="32" height="152" fill="#909090" fill-opacity="0.1"/>
<rect x="1088" width="32" height="152" fill="#909090" fill-opacity="0.1"/>
<rect x="162" y="44" width="32" height="108" fill="#909090" fill-opacity="0.1"/>
<rect x="418" y="44" width="32" height="108" fill="#909090" fill-opacity="0.1"/>
<rect x="770" y="44" width="32" height="108" fill="#909090" fill-opacity="0.1"/>
<rect x="1120" y="44" width="32" height="108" fill="#909090" fill-opacity="0.1"/>
<rect x="194" y="75" width="32" height="77" fill="#909090" fill-opacity="0.1"/>
<rect x="546" y="75" width="32" height="77" fill="#909090" fill-opacity="0.1"/>
<rect x="896" y="75" width="32" height="77" fill="#909090" fill-opacity="0.1"/>
<rect x="450" y="75" width="32" height="77" fill="#909090" fill-opacity="0.1"/>
<rect x="802" y="75" width="32" height="77" fill="#909090" fill-opacity="0.1"/>
<rect x="1152" y="75" width="32" height="77" fill="#909090" fill-opacity="0.1"/>
<rect x="226" y="97" width="32" height="55" fill="#909090" fill-opacity="0.1"/>
<rect x="578" y="97" width="32" height="55" fill="#909090" fill-opacity="0.1"/>
<rect x="928" y="97" width="32" height="55" fill="#909090" fill-opacity="0.1"/>
<rect x="482" y="97" width="32" height="55" fill="#909090" fill-opacity="0.1"/>
<rect x="834" y="97" width="32" height="55" fill="#909090" fill-opacity="0.1"/>
<rect x="1184" y="97" width="32" height="55" fill="#909090" fill-opacity="0.1"/>
<rect x="258" y="53" width="32" height="99" fill="#909090" fill-opacity="0.1"/>
<rect x="610" y="53" width="32" height="99" fill="#909090" fill-opacity="0.1"/>
<rect x="960" y="53" width="32" height="99" fill="#909090" fill-opacity="0.1"/>
<rect x="514" y="53" width="32" height="99" fill="#909090" fill-opacity="0.1"/>
<rect x="866" y="53" width="32" height="99" fill="#909090" fill-opacity="0.1"/>
<rect x="1216" y="53" width="32" height="99" fill="#909090" fill-opacity="0.1"/>
<rect x="1248" y="44" width="32" height="108" fill="#909090" fill-opacity="0.1"/>
<rect x="1374" y="75" width="32" height="77" fill="#909090" fill-opacity="0.1"/>
<rect x="1280" y="75" width="32" height="77" fill="#909090" fill-opacity="0.1"/>
<rect x="1406" y="97" width="32" height="55" fill="#909090" fill-opacity="0.1"/>
<rect x="1312" y="97" width="32" height="55" fill="#909090" fill-opacity="0.1"/>
<rect x="1438" y="53" width="32" height="99" fill="#909090" fill-opacity="0.1"/>
<rect x="1344" y="53" width="32" height="99" fill="#909090" fill-opacity="0.1"/>
</svg>
